<?xml version="1.0" encoding="utf-8"?>
<!-- Generator: Adobe Illustrator 25.0.0, SVG Export Plug-In . SVG Version: 6.00 Build 0)  -->
<svg version="1.1" id="Layer_1" xmlns="http://www.w3.org/2000/svg" xmlns:xlink="http://www.w3.org/1999/xlink" x="0px" y="0px"
	 viewBox="0 0 492 492" style="enable-background:new 0 0 492 492;" xml:space="preserve">
<style type="text/css">
	.st0{fill:none;stroke:#FFFFFF;stroke-miterlimit:10;}
	.st1{fill:none;}
	.st2{fill:#FFFFFF;}
	.st3{font-family:'LetterGothicStd-Bold';}
	.st4{font-size:56px;}
	.st5{font-family:'LetterGothicStd';}
</style>
<g id="Layer_1_1_">
	<g id="Group_622" transform="translate(-99 -129.704)">
		<g id="Group_621" transform="translate(116 148.704)">
			<path id="Path_244" class="st0" d="M36.1,253c5.2,0,6.9,3.5,12.1,3.5c5.2,0,6.9-3.5,12.1-3.5c5.2,0,6.9,3.5,12.1,3.5
				c5.2,0,6.9-3.5,12.1-3.5"/>
			<path id="Path_245" class="st0" d="M36.1,244.3c5.2,0,6.9,3.5,12.1,3.5c5.2,0,6.9-3.5,12.1-3.5c5.2,0,6.9,3.5,12.1,3.5
				c5.2,0,6.9-3.5,12.1-3.5"/>
			<path id="Path_246" class="st0" d="M60.3,244.3c3,0,4.9,1.2,6.9,2.1v-7.3c0-3.8-3.1-6.9-6.9-6.9s-6.9,3.1-6.9,6.9v7.3
				C55.5,245.5,57.3,244.3,60.3,244.3z"/>
			<path id="Path_247" class="st0" d="M41.4,232.2h3.4v15c1.1,0.4,2.3,0.6,3.5,0.6c5.2,0,6.9-3.5,12.1-3.5c5.2,0,6.9,3.5,12.1,3.5
				c1.2,0,2.3-0.2,3.5-0.6v-15h3.4c1.1-0.1,1.9-1.1,1.8-2.1c0-0.5-0.3-0.9-0.6-1.3l-17.3-16.2c-1.6-1.5-4-1.5-5.5,0l-17.3,16.2
				c-0.8,0.8-0.8,2-0.1,2.8C40.5,232,40.9,232.2,41.4,232.2z"/>
		</g>
	</g>
</g>
<g id="Master_Layer_2">
</g>
<g id="Layer_3">
</g>
<rect x="117.7" y="230.9" class="st1" width="351.9" height="119.7"/>
<text transform="matrix(1 0 0 1 117.7273 272.4415)" class="st2 st3 st4">365</text>
<rect x="233.8" y="230.9" class="st1" width="351.9" height="119.7"/>
<text transform="matrix(1 0 0 1 233.7528 272.4415)" class="st2 st5 st4">ALERT</text>
</svg>
