<?xml version="1.0" encoding="utf-8"?>
<!-- Generator: Adobe Illustrator 25.0.0, SVG Export Plug-In . SVG Version: 6.00 Build 0)  -->
<svg version="1.1" id="Capa_1" xmlns="http://www.w3.org/2000/svg" xmlns:xlink="http://www.w3.org/1999/xlink" x="0px" y="0px"
	 viewBox="0 0 3968.5 3968.5" style="enable-background:new 0 0 3968.5 3968.5;" xml:space="preserve">
<style type="text/css">
	.st0{fill:#0072B1;}
	.st1{fill:#FFFFFF;}
</style>
<g>
	<g>
		<g>
			<path class="st0" d="M2917.8,1924.3c0,531.9-431.2,963.1-963,963.1c-531.8,0-963-431.2-963-963.1c0-531.8,431.2-963,963-963
				C2486.6,961.3,2917.8,1392.4,2917.8,1924.3z"/>
		</g>
		<g id="XMLID_1_">
			<g id="XMLID_3_">
				<rect id="XMLID_5_" x="1518.1" y="1690.8" class="st1" width="187.7" height="606.4"/>
				<path id="XMLID_4_" class="st1" d="M1611.1,1611.5c61.2,0,110.9-50.2,110.9-112s-49.7-111.8-110.9-111.8
					c-61.2,0-110.9,50.1-110.9,111.8C1500,1561.3,1549.7,1611.5,1611.1,1611.5z"/>
			</g>
			<path id="XMLID_2_" class="st1" d="M2005.9,1978.9c0-85.3,39.2-136.1,114.4-136.1c69,0,102.2,48.7,102.2,136.1s0,318.4,0,318.4
				h186.8c0,0,0-221.6,0-383.9c0-162.4-92-241-220.7-241c-128.7,0-182.7,100.1-182.7,100.1v-81.7h-180.1v606.4h180.1
				C2005.9,2297.1,2005.9,2072.3,2005.9,1978.9z"/>
		</g>
	</g>
</g>
</svg>
