<?xml version="1.0" encoding="utf-8"?>
<!-- Generator: Adobe Illustrator 25.0.0, SVG Export Plug-In . SVG Version: 6.00 Build 0)  -->
<svg version="1.1" xmlns="http://www.w3.org/2000/svg" xmlns:xlink="http://www.w3.org/1999/xlink" x="0px" y="0px"
	 viewBox="0 0 1200 1200" style="enable-background:new 0 0 1200 1200;" xml:space="preserve">
<style type="text/css">
	.st0{fill-rule:evenodd;clip-rule:evenodd;fill:#16354D;}
	.st1{fill:#16354D;}
</style>
<g id="Layer_4">
</g>
<g id="Layer_3">
</g>
<g id="Layer_5">
	<path id="Path_276" class="st0" d="M385.3,980.1h549V308.8H525.9c-10.8,0-19.6-8.8-19.6-19.6c0-10.8,8.8-19.6,19.6-19.6h428
		c10.8,0,19.6,8.8,19.6,19.6c0,0,0,0,0,0v710.6c0,10.8-8.8,19.6-19.6,19.6l0,0H365.7c-10.8,0-19.6-8.8-19.6-19.6c0,0,0,0,0,0V541.9
		c0-10.8,8.8-19.6,19.6-19.6c10.8,0,19.6,8.8,19.6,19.6V980.1z"/>
	<path id="Path_277" class="st1" d="M680.8,647.6l-127.4-43.1l100.9-100.9L697,630.1c2.8,6.6-0.2,14.3-6.9,17.2
		C687.2,648.5,683.9,648.7,680.8,647.6L680.8,647.6z M531.4,589.6l107.9-107.9L406.2,248.5L298.3,356.4L531.4,589.6L531.4,589.6z
		 M279.7,337.9L248.8,307c-29.8-29.9-29.7-78.2,0.2-108c29.7-29.6,77.8-29.7,107.6-0.2l30.9,30.9L279.7,337.9z"/>
</g>
</svg>
