<?xml version="1.0" encoding="utf-8"?>
<!-- Generator: Adobe Illustrator 25.0.0, SVG Export Plug-In . SVG Version: 6.00 Build 0)  -->
<svg version="1.1" xmlns="http://www.w3.org/2000/svg" xmlns:xlink="http://www.w3.org/1999/xlink" x="0px" y="0px"
	 viewBox="0 0 2804.13 1462.13" style="enable-background:new 0 0 2804.13 1462.13;" xml:space="preserve">
<style type="text/css">
	.st0{fill:none;stroke:#FF6501;stroke-width:25;stroke-miterlimit:10;}
</style>
<g id="Layer_2">
</g>
<g id="Layer_1">
	<g>
		<g>
			<g>
				<g>
					<g>
						<polygon class="st0" points="1364.64,268.9 1595.23,668.28 1825.81,1067.66 1364.64,1067.66 903.48,1067.66 1134.06,668.28 
													"/>
					</g>
				</g>
			</g>
			<g>
				<path d="M1363.98,491.35c-0.77-0.01-1.52,0-2.26,0.02c-0.74-0.02-1.5-0.04-2.26-0.02c0,0-66.96-2.62-56.01,89.75l34.68,275.13
					c0,0,4.17,28.27,23.47,29.13v0.02c0.04,0,0.07-0.01,0.11-0.01c0.04,0,0.07,0.01,0.11,0.01v-0.02
					c19.3-0.87,23.47-29.13,23.47-29.13l34.68-275.13C1430.94,488.73,1363.98,491.35,1363.98,491.35z"/>
				<path d="M1361.72,903.14c-26.49,0-48.04,21.71-48.04,48.4c0,26.69,21.55,48.4,48.04,48.4c26.49,0,48.04-21.71,48.04-48.4
					C1409.76,924.85,1388.21,903.14,1361.72,903.14z"/>
			</g>
		</g>
	</g>
</g>
</svg>
