<?xml version="1.0" encoding="utf-8"?>
<!-- Generator: Adobe Illustrator 25.0.0, SVG Export Plug-In . SVG Version: 6.00 Build 0)  -->
<svg version="1.1" id="Layer_1" xmlns="http://www.w3.org/2000/svg" xmlns:xlink="http://www.w3.org/1999/xlink" x="0px" y="0px"
	 viewBox="0 0 2804.1 1462.1" style="enable-background:new 0 0 2804.1 1462.1;" xml:space="preserve">
<style type="text/css">
	.st0{fill:none;stroke:#12600A;stroke-width:18;stroke-miterlimit:10;}
	.st1{fill:none;stroke:#12600A;stroke-width:20;stroke-linecap:round;stroke-linejoin:round;stroke-miterlimit:10;}
</style>
<g id="Layer_2_1_">
</g>
<path class="st0" d="M1394.8,1103.8c-21.9-2.1-126.3-17.6-217.2-120.1c-107.9-121.7-157.9-325.4-144.6-589l0.4-8.3l8.2-0.6
	c87.7-6.9,249.2-33,345.5-129.9l6.7-6.7l6.7,6.7c96.4,96.9,257.9,122.9,345.6,129.9l8.2,0.6l0.4,8.3
	c13.2,262-36.1,464.9-142.7,586.8C1519.9,1087,1414.9,1101.9,1394.8,1103.8z"/>
<g>
	<line id="Line_39" class="st1" x1="1272.7" y1="676.5" x2="1369.7" y2="805.9"/>
	<line id="Line_40" class="st1" x1="1369.7" y1="805.9" x2="1531.5" y2="547.1"/>
</g>
</svg>
