<?xml version="1.0" encoding="utf-8"?>
<!-- Generator: Adobe Illustrator 25.0.0, SVG Export Plug-In . SVG Version: 6.00 Build 0)  -->
<svg version="1.1" id="icons" xmlns="http://www.w3.org/2000/svg" xmlns:xlink="http://www.w3.org/1999/xlink" x="0px" y="0px"
	 viewBox="0 0 1182 1045" style="enable-background:new 0 0 1182 1045;" xml:space="preserve">
<style type="text/css">
	.st0{fill:#FFFFFF;}
</style>
<g id="_x32_4">
	<g>
		<path class="st0" d="M750.98,331.9c-0.04-0.04-0.04-0.08-0.08-0.08c-0.74-0.74-1.44-1.44-2.18-2.14l-0.04-0.04
			c-39.37-38.78-93.35-62.72-152.83-62.72c-59.48,0-113.46,23.93-152.83,62.72l-0.04,0.04c-0.74,0.7-1.44,1.4-2.18,2.14
			c-0.04,0-0.04,0.04-0.08,0.08c-18.59,18.83-33.79,41.04-44.55,65.6c-5.96-2.73-13.18-1.79-18.16,2.92l-13.37,12.71
			c-41.24,39.17-31.34,116.54,70.59,223.89l4.72,4.99c101.93,107.34,178.67,121.26,219.91,82.09l13.45-12.71
			c6.39-6.08,6.7-16.25,0.7-22.96c28.18-10.87,53.52-27.4,74.68-48.25c0,0,0.04,0,0.04-0.04c0.78-0.74,1.6-1.52,2.34-2.34
			c0.04-0.04,0.04-0.04,0.04-0.04c38.78-39.33,62.75-93.31,62.75-152.83C813.85,425.37,789.84,371.31,750.98,331.9z M739.91,609.69
			l-37.96-38c-5.34-5.3-13.95-5.3-19.29,0c-5.34,5.34-5.34,13.99,0,19.29l38,38c-19.37,16.8-42.17,29.78-67.2,37.73l-34.57-36.44
			c-7.33-7.72-19.37-8.15-26.93-1.01l-10.25,9.78c-13.14,12.47-34.15,11.65-46.93-1.79l-89.88-94.68
			c-12.78-13.45-12.47-34.46,0.66-46.97l10.25-9.74c7.56-7.13,7.72-19.22,0.39-26.93l-38.94-40.97
			c8.07-21.36,19.84-40.89,34.53-57.84l37.96,38c2.69,2.65,6.16,3.98,9.67,3.98c3.47,0,6.98-1.33,9.63-3.98
			c5.34-5.34,5.34-13.99,0-19.29l-38-38c30.25-26.23,68.8-43.11,111.16-46.15v53.83c0,7.56,6.12,13.64,13.64,13.64
			c7.52,0,13.64-6.08,13.64-13.64v-53.83c42.37,3.04,80.92,19.92,111.16,46.15l-38,38c-5.34,5.3-5.34,13.95,0,19.29
			c2.65,2.65,6.16,3.98,9.63,3.98c3.51,0,6.98-1.33,9.67-3.98l37.96-38c26.27,30.25,43.15,68.8,46.19,111.16h-53.87
			c-7.52,0-13.64,6.08-13.64,13.64c0,7.52,6.12,13.64,13.64,13.64h53.87C783.06,540.9,766.18,579.49,739.91,609.69z"/>
		<path class="st0" d="M750.9,331.82c-0.74-0.74-1.44-1.44-2.18-2.14c0.43,0.31,0.86,0.7,1.25,1.09
			C750.32,331.12,750.63,331.47,750.9,331.82z"/>
	</g>
	<g>
		<g>
			<path class="st0" d="M591.37,536.1v5.34c0,2.07-1.64,3.7-3.7,3.7h-68.29c-2.22,0-4.01-1.91-3.7-4.13
				c0.74-5.38,1.87-10.13,3.47-14.19c1.87-5.11,4.29-9.47,7.25-13.14c5.96-7.02,13.18-12.98,21.63-17.85
				c10.02-5.96,17.46-11.62,22.41-16.99c4.91-5.11,7.41-11.65,7.41-19.68c-0.12-6.7-2.34-12.04-6.63-16.02
				c-4.25-3.82-9.59-5.73-15.98-5.73c-8.07,0.23-13.92,3.31-17.5,9.32c-3.2,5.18-4.95,10.91-5.3,17.19
				c-0.08,1.91-1.75,3.39-3.7,3.39h-6.51c-2.06,0-3.78-1.68-3.74-3.74c0.35-10.76,3.43-19.72,9.24-26.89
				c6.51-7.91,15.94-11.89,28.3-12c10.56,0,19.22,2.96,26.04,8.89c6.9,5.96,10.41,14.58,10.52,25.8
				c-0.12,10.29-3.04,18.59-8.77,24.98c-5.46,6.24-12,11.65-19.61,16.25c-7.48,4.33-14.34,8.85-20.62,13.6
				c-4.79,3.62-8.3,7.99-10.48,13.14c-1.01,2.38,0.9,5.07,3.51,5.07h51.06C589.73,532.4,591.37,534.04,591.37,536.1z"/>
		</g>
		<g>
			<path class="st0" d="M679.57,504.18h-8.46c-2.03,0-3.7-1.68-3.7-3.74v-72.07c0-2.03-1.68-3.7-3.74-3.7h-5.38
				c-1.25,0-2.42,0.58-3.12,1.64l-51.49,75.73c-0.43,0.62-0.66,1.36-0.66,2.1v9.08c0,2.03,1.68,3.7,3.74,3.7h43.81
				c2.07,0,3.74,1.68,3.74,3.74v20.78c0,2.07,1.68,3.7,3.7,3.7h5.65c2.07,0,3.74-1.64,3.74-3.7v-20.78c0-2.07,1.68-3.74,3.7-3.74
				h8.46c2.03,0,3.7-1.68,3.7-3.7v-5.34C683.28,505.82,681.6,504.18,679.57,504.18z M654.32,500.44c0,2.07-1.68,3.74-3.74,3.74H622
				c-2.96,0-4.72-3.31-3.12-5.81l35.04-53.13h0.39V500.44z"/>
		</g>
	</g>
</g>
</svg>
