<?xml version="1.0" encoding="utf-8"?>
<!-- Generator: Adobe Illustrator 25.0.0, SVG Export Plug-In . SVG Version: 6.00 Build 0)  -->
<svg version="1.1" id="icons" xmlns="http://www.w3.org/2000/svg" xmlns:xlink="http://www.w3.org/1999/xlink" x="0px" y="0px"
	 viewBox="0 0 1182 1045" style="enable-background:new 0 0 1182 1045;" xml:space="preserve">
<style type="text/css">
	.st0{fill:#FFFFFF;}
</style>
<g id="web">
	<g>
		<path class="st0" d="M783.2,379.87c-44.79-58.62-112.8-92.26-186.51-92.26h-0.04c-0.04,0-0.04,0-0.08,0
			c-73.71,0.04-141.64,33.68-186.47,92.26c-31.53,41.16-48.18,90.43-48.18,142.46c0,52.04,16.64,101.3,48.18,142.46
			c44.82,58.58,112.76,92.22,186.47,92.26c0.04,0,0.04,0,0.08,0h0.04c73.71,0,141.72-33.64,186.51-92.26
			c31.53-41.2,48.21-90.47,48.21-142.46C831.42,470.34,814.73,421.07,783.2,379.87z M770.88,642v0.04
			c-1.99,2.92-4.05,5.73-6.24,8.58c-2.65,3.47-5.38,6.82-8.22,10.1c-25.49,29.51-57.92,50.9-94.05,62.68
			c-17.31,5.57-35.43,8.96-54.02,9.98c-3.86,0.19-7.76,0.31-11.65,0.31h-0.08c-3.9,0-7.8-0.12-11.65-0.31
			c-18.63-1.01-36.76-4.4-54.06-10.02c-36.09-11.77-68.52-33.17-94.01-62.64c-2.85-3.27-5.57-6.63-8.22-10.1
			c-2.14-2.81-4.25-5.69-6.2-8.58c-22.14-32.04-34.73-68.99-36.83-108.01c-0.2-3.86-0.31-7.76-0.31-11.69
			c0-3.94,0.12-7.83,0.31-11.69c2.1-39.02,14.69-75.97,36.83-108.01c1.95-2.88,4.05-5.77,6.2-8.58c2.65-3.47,5.38-6.82,8.19-10.1
			c25.53-29.47,57.96-50.87,94.05-62.64c17.31-5.61,35.43-9,54.06-10.02c3.86-0.2,7.76-0.31,11.65-0.31h0.08
			c3.9,0,7.8,0.12,11.65,0.31c18.59,1.01,36.72,4.4,54.02,9.98c36.13,11.77,68.56,33.17,94.09,62.68c2.81,3.27,5.53,6.63,8.19,10.1
			c2.14,2.81,4.25,5.69,6.2,8.58v0.04c22.18,32.08,34.77,68.99,36.87,107.97c0.19,3.86,0.31,7.76,0.31,11.69
			c0,3.94-0.12,7.83-0.31,11.69C805.61,572.97,793.02,609.92,770.88,642z"/>
	</g>
	<g>
		<path class="st0" d="M722.04,510.64c-0.74-29.62-4.29-57.61-10.13-83.1c-1.79-7.76-3.82-15.32-6-22.57
			c-10.45-34.5-25.45-63.26-43.54-83.68c-19.02-21.44-41.43-33.68-65.68-33.68h-0.04c-0.04,0-0.04,0-0.08,0
			c-24.21,0.04-46.66,12.28-65.68,33.72c-18.05,20.42-33.01,49.15-43.46,83.61c-2.18,7.29-4.21,14.85-6,22.65
			c-5.85,25.49-9.39,53.48-10.13,83.06c-0.12,3.86-0.16,7.76-0.16,11.69c0,3.94,0.04,7.83,0.16,11.69
			c0.74,29.62,4.29,57.61,10.13,83.1c1.79,7.8,3.82,15.32,6.04,22.61c10.41,34.46,25.37,63.18,43.42,83.61
			c19.02,21.44,41.47,33.68,65.68,33.72c0.04,0,0.04,0,0.08,0h0.04c24.24,0,46.66-12.24,65.68-33.68
			c18.09-20.42,33.09-49.19,43.5-83.65c2.22-7.29,4.25-14.81,6.04-22.61c5.85-25.49,9.39-53.48,10.13-83.1
			c0.12-3.86,0.16-7.76,0.16-11.69C722.2,518.4,722.16,514.5,722.04,510.64z M688.99,611.21c-1.79,7.8-3.82,15.32-6.08,22.57
			c-16.25,52.93-43.54,90.74-74.56,98.42c-3.82,0.97-7.72,1.48-11.65,1.48h-0.08c-3.94,0-7.83-0.51-11.65-1.48
			c-31.03-7.68-58.27-45.49-74.52-98.42c-2.26-7.25-4.29-14.81-6.08-22.61c-5.5-23.78-8.89-49.85-9.67-77.14
			c-0.12-3.86-0.16-7.76-0.16-11.69c0-3.94,0.04-7.83,0.16-11.69c0.78-27.28,4.17-53.36,9.67-77.14c1.79-7.8,3.82-15.32,6.08-22.57
			c16.25-52.93,43.5-90.78,74.52-98.46c3.82-0.97,7.72-1.48,11.65-1.48h0.08c3.94,0,7.83,0.51,11.65,1.48
			c31.07,7.68,58.35,45.53,74.56,98.5c2.26,7.25,4.29,14.73,6.08,22.53c5.5,23.78,8.89,49.85,9.67,77.14
			c0.12,3.86,0.16,7.76,0.16,11.69c0,3.94-0.04,7.83-0.16,11.69C697.88,561.31,694.49,587.43,688.99,611.21z"/>
	</g>
	<g>
		<path class="st0" d="M596.71,443.41c-36.53,0-71.5-4.27-103.93-12.69c-30.87-7.99-58.5-19.76-79.87-34.02l12.98-19.45
			c19.22,12.83,44.38,23.49,72.76,30.84c30.52,7.92,63.51,11.94,98.06,11.94c34.55,0,67.54-4.02,98.05-11.94
			c28.45-7.4,53.58-18.06,72.68-30.84l13,19.44c-21.25,14.21-48.84,25.98-79.8,34.03C668.21,439.14,633.24,443.41,596.71,443.41z"/>
	</g>
	<g>
		<path class="st0" d="M425.88,667.44l-12.95-19.47c21.37-14.22,48.98-25.98,79.85-34.01c32.52-8.4,67.48-12.66,103.93-12.66
			c36.52,0,71.48,4.27,103.93,12.69c30.82,7.97,58.41,19.72,79.79,33.98l-12.97,19.46c-19.23-12.82-44.36-23.47-72.68-30.8
			c-30.54-7.92-63.53-11.94-98.06-11.94c-34.48,0-67.48,4.01-98.07,11.91C470.28,643.97,445.11,654.64,425.88,667.44z"/>
	</g>
	<g>
		<rect x="373.62" y="510.64" class="st0" width="446.1" height="23.39"/>
	</g>
	<g>
		<rect x="584.98" y="299.29" class="st0" width="23.39" height="446.1"/>
	</g>
</g>
</svg>
