<?xml version="1.0" encoding="utf-8"?>
<!-- Generator: Adobe Illustrator 25.0.0, SVG Export Plug-In . SVG Version: 6.00 Build 0)  -->
<svg version="1.1" id="icons" xmlns="http://www.w3.org/2000/svg" xmlns:xlink="http://www.w3.org/1999/xlink" x="0px" y="0px"
	 viewBox="0 0 1182 1045" style="enable-background:new 0 0 1182 1045;" xml:space="preserve">
<style type="text/css">
	.st0{fill:#FFFFFF;}
</style>
<path id="mobile" class="st0" d="M703.59,309.36H477.56c-9.71,0-17.54,7.83-17.54,17.54v390.87c0,9.67,7.83,17.54,17.54,17.54
	h226.03c9.71,0,17.54-7.87,17.54-17.54V326.9C721.13,317.2,713.3,309.36,703.59,309.36z M582.92,331.97
	c0.78-2.81,3.24-5.03,6.08-5.53c5.15-0.97,9.55,2.92,9.55,7.83c0,4.4-3.55,7.99-7.99,7.99
	C585.42,342.26,581.44,337.35,582.92,331.97z M620.61,709.23c-2.26,2.34-5.46,3.74-8.96,3.74h-41.43c-6.31,0-12.16-4.33-13.21-10.52
	c-0.43-2.53-0.12-4.91,0.78-7.02c0.62-1.56,1.56-2.96,2.73-4.13c2.3-2.3,5.46-3.7,8.96-3.7h42.17c5.3,0,9.86,3.23,11.73,7.83
	c0.62,1.48,0.97,3.12,0.97,4.83C624.35,703.78,622.95,706.97,620.61,709.23z M686.05,656.42c0,3.2-2.61,5.81-5.81,5.81H500.91
	c-3.2,0-5.81-2.61-5.81-5.81V364.4c0-3.2,2.61-5.81,5.81-5.81h179.34c3.2,0,5.81,2.61,5.81,5.81V656.42z"/>
</svg>
