<?xml version="1.0" encoding="utf-8"?>
<!-- Generator: Adobe Illustrator 25.0.0, SVG Export Plug-In . SVG Version: 6.00 Build 0)  -->
<svg version="1.1" xmlns="http://www.w3.org/2000/svg" xmlns:xlink="http://www.w3.org/1999/xlink" x="0px" y="0px"
	 viewBox="0 0 492 492" style="enable-background:new 0 0 492 492;" xml:space="preserve">
<style type="text/css">
	.st0{fill:#ABBA82;}
	.st1{fill:none;stroke:#037C87;stroke-width:4;stroke-miterlimit:10;}
	.st2{fill:none;stroke:#037C87;stroke-width:3;stroke-linecap:round;stroke-linejoin:bevel;}
</style>
<g id="Layer_1">
	<g id="Group_489" transform="translate(0 0.125)">
		<g id="Group_488" transform="translate(67.009 0)">
			<path class="st0" d="M252.98,148.77h-44.59l-0.01-0.01c-1.36,0-2.47,1.1-2.47,2.47v123.3c0.17-0.01,0.34-0.03,0.52-0.03
				c2.28,0,3.75,1.26,4.42,2.88V153.7h39.67v123.72c1.24-1.49,3.17-1.94,4.93-1.59v-124.6
				C255.44,149.87,254.34,148.77,252.98,148.77z"/>
			<path id="Path_192" class="st0" d="M208.38,148.77c-1.36,0-2.47,1.1-2.47,2.47s1.1,2.47,2.47,2.47l0,0h21.02
				c1.36,0,2.47-1.1,2.47-2.47s-1.1-2.47-2.47-2.47l0,0H208.38z"/>
			<path id="Path_193" class="st0" d="M208.38,161.98c-1.36,0-2.47,1.1-2.47,2.47s1.1,2.47,2.47,2.47l0,0h21.02
				c1.36,0,2.47-1.1,2.47-2.47s-1.1-2.47-2.47-2.47l0,0H208.38z"/>
			<path id="Path_194" class="st0" d="M208.38,175.19c-1.36,0-2.47,1.1-2.47,2.47c0,1.36,1.1,2.47,2.47,2.47H222
				c1.36,0,2.47-1.1,2.47-2.47c0-1.36-1.1-2.47-2.47-2.47H208.38z"/>
			<path id="Path_195" class="st0" d="M208.38,188.39c-1.36,0-2.47,1.1-2.47,2.47c0,1.36,1.1,2.47,2.47,2.47h21.02
				c1.36,0,2.47-1.1,2.47-2.47c0-1.36-1.1-2.47-2.47-2.47H208.38z"/>
			<path id="Path_196" class="st0" d="M208.38,201.61c-1.36,0-2.47,1.1-2.47,2.47c0,1.36,1.1,2.47,2.47,2.47l0,0H222
				c1.36,0,2.47-1.1,2.47-2.47c0-1.36-1.1-2.47-2.47-2.47H208.38z"/>
			<path id="Path_197" class="st0" d="M208.38,214.82c-1.36,0-2.47,1.1-2.47,2.47c0,1.36,1.1,2.47,2.47,2.47l0,0h21.02
				c1.36,0,2.47-1.1,2.47-2.47c0-1.36-1.1-2.47-2.47-2.47l0,0H208.38z"/>
			<path id="Path_198" class="st0" d="M208.37,228.03c-1.36,0-2.47,1.1-2.47,2.47c0,1.36,1.1,2.47,2.47,2.47l0,0H222
				c1.36,0,2.47-1.1,2.47-2.47c0-1.36-1.1-2.47-2.47-2.47H208.37z"/>
			<path id="Path_199" class="st0" d="M208.38,241.24c-1.36,0-2.47,1.1-2.47,2.47c0,1.36,1.1,2.47,2.47,2.47l0,0h21.02
				c1.36,0,2.47-1.1,2.47-2.47c0-1.36-1.1-2.47-2.47-2.47l0,0H208.38z"/>
			<path id="Path_200" class="st0" d="M208.37,254.45c-1.36,0-2.47,1.1-2.47,2.47c0,1.36,1.1,2.47,2.47,2.47l0,0H222
				c1.36,0,2.47-1.1,2.47-2.47c0-1.36-1.1-2.47-2.47-2.47H208.37z"/>
			<path id="Path_201" class="st0" d="M208.37,267.66c-1.36,0-2.47,1.1-2.47,2.47c0,1.36,1.1,2.47,2.47,2.47l0,0h21.02
				c1.36,0,2.47-1.1,2.47-2.47c0-1.36-1.1-2.47-2.47-2.47l0,0H208.37z"/>
		</g>
		<path id="Path_207" class="st1" d="M149.69,316.41c21.55,0,28.61,20.98,49.93,20.98c21.39,0,28.52-20.98,49.93-20.98
			s28.54,20.98,49.93,20.98c21.32,0,28.38-20.98,49.93-20.98"/>
		<path id="Path_208" class="st1" d="M149.69,263.96c21.55,0,28.61,20.98,49.93,20.98c21.39,0,28.52-20.98,49.93-20.98
			s28.54,20.98,49.93,20.98c21.32,0,28.38-20.98,49.93-20.98"/>
		<line id="Line_1" class="st2" x1="208.06" y1="233.25" x2="208.06" y2="172.72"/>
		<line id="Line_2" class="st2" x1="190.76" y1="194.34" x2="208.06" y2="172.72"/>
		<line id="Line_3" class="st2" x1="208.06" y1="172.72" x2="225.35" y2="194.34"/>
	</g>
</g>
<g id="Master_Layer_2">
</g>
<g id="Layer_3">
</g>
</svg>
