<?xml version="1.0" encoding="utf-8"?>
<!-- Generator: Adobe Illustrator 25.0.0, SVG Export Plug-In . SVG Version: 6.00 Build 0)  -->
<svg version="1.1" xmlns="http://www.w3.org/2000/svg" xmlns:xlink="http://www.w3.org/1999/xlink" x="0px" y="0px"
	 viewBox="0 0 492 492" style="enable-background:new 0 0 492 492;" xml:space="preserve">
<style type="text/css">
	.st0{fill:#FFFFFF;stroke:#FFFFFF;stroke-miterlimit:10;}
</style>
<g id="Layer_1">
	<path id="Path_257" class="st0" d="M276.34,174.61c-2.3-0.95-4.65-1.79-7.06-2.52v-17.29c0-3.68-2.98-6.66-6.66-6.66l0,0H231.6
		c-3.68,0-6.66,2.97-6.66,6.65c0,0.01,0,0.01,0,0.02v17.29c-2.42,0.73-4.78,1.57-7.06,2.52s-4.55,2.03-6.8,3.23l-12.21-12.21l0,0
		c-2.6-2.6-6.82-2.6-9.42,0l-21.9,21.9l0,0c-2.6,2.6-2.6,6.82,0,9.42l12.23,12.23c-1.18,2.21-2.25,4.48-3.23,6.8
		c-0.98,2.32-1.82,4.67-2.52,7.06h-17.3c-3.68,0-6.66,2.98-6.66,6.66c0,0,0,0,0,0v31.01c0,3.68,2.98,6.66,6.66,6.66l0,0h17.3
		c0.74,2.42,1.58,4.78,2.52,7.06c0.95,2.28,2.02,4.55,3.23,6.8l-12.21,12.21l0,0c-2.6,2.6-2.6,6.82,0,9.42l21.9,21.9l0,0
		c2.6,2.6,6.81,2.6,9.41,0.01c0,0,0,0,0.01-0.01l12.23-12.23c4.42,2.38,9.07,4.31,13.88,5.76v17.3c0,3.68,2.98,6.66,6.66,6.66l0,0
		h31.01c3.68,0,6.66-2.98,6.66-6.66c0,0,0,0,0,0v-17.3c2.39-0.72,4.75-1.57,7.06-2.52c2.32-0.96,4.58-2.04,6.8-3.23l12.21,12.21l0,0
		c2.6,2.6,6.82,2.6,9.42,0l21.9-21.9l0,0c2.6-2.6,2.6-6.81,0.01-9.41c0,0,0,0-0.01-0.01l-12.23-12.23
		c2.38-4.42,4.31-9.07,5.76-13.88h17.3c3.68,0,6.66-2.98,6.66-6.66c0,0,0,0,0,0v-31.01c0-3.68-2.98-6.66-6.66-6.66l0,0h-17.3
		c-1.45-4.81-3.38-9.46-5.76-13.88l12.21-12.21l0,0c2.6-2.6,2.6-6.82,0-9.42l-21.9-21.9l0,0c-2.6-2.6-6.82-2.6-9.42,0l-12.23,12.23
		c-2.21-1.18-4.48-2.25-6.8-3.23L276.34,174.61z M220.73,218.83c14.59-14.57,38.23-14.56,52.81,0.04
		c14.57,14.59,14.56,38.23-0.04,52.81c-14.59,14.57-38.23,14.56-52.81-0.04c-7-7.01-10.92-16.5-10.92-26.4
		c-0.02-9.9,3.91-19.4,10.92-26.4H220.73z"/>
</g>
<g id="Master_Layer_2">
</g>
<g id="Layer_3">
</g>
</svg>
