<?xml version="1.0" encoding="utf-8"?>
<!-- Generator: Adobe Illustrator 25.0.0, SVG Export Plug-In . SVG Version: 6.00 Build 0)  -->
<svg version="1.1" xmlns="http://www.w3.org/2000/svg" xmlns:xlink="http://www.w3.org/1999/xlink" x="0px" y="0px"
	 viewBox="0 0 492 492" style="enable-background:new 0 0 492 492;" xml:space="preserve">
<style type="text/css">
	.st0{fill:none;stroke:#FFFFFF;stroke-width:0.8;stroke-miterlimit:10;}
	.st1{fill:#FFFFFF;stroke:#FFFFFF;stroke-width:0.8;stroke-miterlimit:10;}
</style>
<g id="Layer_1">
	<g id="Group_541" transform="translate(0 0)">
		<path id="Path_218" class="st0" d="M343.84,243.49c0,52.97-42.93,95.91-95.9,95.91s-95.91-42.93-95.92-95.9
			c0-52.97,42.93-95.91,95.9-95.91c0,0,0,0,0.01,0C300.9,147.59,343.84,190.53,343.84,243.49z"/>
	</g>
	<path id="Path_221" class="st1" d="M232.48,306.6h24.62v-61.64h17.17l1.83-20.64H257.1v-11.76c0-4.87,0.98-6.79,5.68-6.79h13.32
		v-21.42h-17.05c-18.32,0-26.58,8.06-26.58,23.51v16.46h-12.81v20.9h12.81L232.48,306.6z"/>
</g>
<g id="Master_Layer_2">
</g>
<g id="Layer_3">
</g>
</svg>
