<?xml version="1.0" encoding="utf-8"?>
<!-- Generator: Adobe Illustrator 25.0.0, SVG Export Plug-In . SVG Version: 6.00 Build 0)  -->
<svg version="1.1" id="Layer_1" xmlns="http://www.w3.org/2000/svg" xmlns:xlink="http://www.w3.org/1999/xlink" x="0px" y="0px"
	 viewBox="0 0 492 492" style="enable-background:new 0 0 492 492;" xml:space="preserve">
<style type="text/css">
	.st0{fill:#037C87;}
</style>
<g id="Layer_1_1_">
	<g id="Group_624" transform="translate(-71.874 -62.42)">
		<path id="Path_248" class="st0" d="M318.7,210.8c28.4,0,51.4,23,51.4,51.4c0,28.4-23,51.4-51.4,51.4c-28.4,0-51.4-23-51.4-51.4
			c0-13.6,5.4-26.7,15-36.3C292,216.2,305.1,210.8,318.7,210.8z"/>
		<path id="Path_249" class="st0" d="M409.2,396.4c0.2-12.6-1-25.3-3.8-37.6c-0.5-1.9-1.2-3.8-2-5.6h0.1
			c-2.8-6.8-7.2-12.8-12.9-17.5c-13-9.4-27.7-16.1-43.3-19.5c-0.6-0.2-1.2-0.2-1.8,0l0,0l-0.3,0.1l-0.2,0.1h-0.1
			c-0.2,0.1-0.5,0.2-0.7,0.4c-15.5,11-36.2,11-51.7,0c-0.2-0.1-0.4-0.3-0.7-0.4h-0.1l-0.2-0.1l-0.3-0.1l0,0c-0.6-0.1-1.2-0.1-1.8,0
			c-15.6,3.5-30.4,10.1-43.3,19.5c-5.7,4.6-10.2,10.6-12.9,17.5h0.1c-0.8,1.8-1.4,3.7-2,5.6c-2.8,12.4-4,25-3.8,37.6
			c0,2.3-0.1,4.5-0.2,6.8c0,2,1.5,3.6,3.5,3.7h175c2-0.1,3.5-1.7,3.5-3.7C409.3,400.9,409.2,398.6,409.2,396.4z"/>
	</g>
</g>
<g id="Master_Layer_2">
</g>
</svg>
