<?xml version="1.0" encoding="utf-8"?>
<!-- Generator: Adobe Illustrator 25.0.0, SVG Export Plug-In . SVG Version: 6.00 Build 0)  -->
<svg version="1.1" xmlns="http://www.w3.org/2000/svg" xmlns:xlink="http://www.w3.org/1999/xlink" x="0px" y="0px"
	 viewBox="0 0 492 492" style="enable-background:new 0 0 492 492;" xml:space="preserve">
<style type="text/css">
	.st0{fill:#037C87;}
	.st1{fill:#ABBA82;stroke:#ABBA82;stroke-miterlimit:10;}
</style>
<g id="Layer_1">
	<g id="Group_472" transform="translate(0 0)">
		<g id="Group_471">
			<g id="Group_464" transform="translate(0.02 51.971)">
				<path id="Path_160" class="st0" d="M248.19,253.57c-0.67,0-1.31-0.25-1.8-0.7l-81.3-74.89c-1.08-0.99-1.15-2.67-0.15-3.75
					c0.99-1.08,2.67-1.15,3.75-0.15l79.5,73.23l79.5-73.24c1.1-0.98,2.78-0.88,3.75,0.21c0.96,1.07,0.89,2.71-0.15,3.69l-81.3,74.89
					C249.5,253.32,248.86,253.57,248.19,253.57z"/>
			</g>
			<g id="Group_465" transform="translate(63.532 91.767)">
				<path id="Path_161" class="st0" d="M266,247.95c-0.57,0-1.12-0.18-1.57-0.52l-65.84-48.42c-1.16-0.9-1.37-2.57-0.48-3.73
					c0.87-1.12,2.46-1.36,3.62-0.55l65.85,48.42c1.18,0.87,1.43,2.53,0.56,3.72C267.65,247.55,266.85,247.95,266,247.95L266,247.95z
					"/>
			</g>
			<g id="Group_466" transform="translate(0 91.767)">
				<path id="Path_162" class="st0" d="M166.88,247.95c-1.47,0-2.66-1.19-2.66-2.66c0-0.84,0.4-1.64,1.08-2.14l65.84-48.42
					c1.2-0.84,2.86-0.55,3.7,0.66c0.81,1.16,0.57,2.76-0.55,3.62l-65.84,48.42C168,247.77,167.45,247.95,166.88,247.95z"/>
			</g>
			<g id="Group_467" transform="translate(19.097 14.377)">
				<path id="Path_163" class="st0" d="M281.34,243.06c-1.47,0-2.66-1.19-2.66-2.66l0,0v-81.42h-99.15v81.42
					c0,1.47-1.19,2.66-2.66,2.66c-1.47,0-2.66-1.19-2.66-2.66c0,0,0,0,0,0v-84.08c0-1.47,1.19-2.66,2.65-2.66c0,0,0,0,0,0h104.46
					c1.47,0,2.66,1.19,2.66,2.66c0,0,0,0,0,0v84.08C284,241.87,282.81,243.06,281.34,243.06
					C281.34,243.06,281.34,243.06,281.34,243.06z"/>
			</g>
			<g id="Group_468" transform="translate(38.855)">
				<path id="Path_164" class="st0" d="M187.24,173.36c-1.47,0-2.66-1.19-2.66-2.65c0-0.71,0.28-1.39,0.79-1.89l22.12-21.91
					c1.04-1.03,2.7-1.03,3.74,0l22.08,21.91c1.04,1.03,1.05,2.72,0.02,3.76c-1.03,1.04-2.72,1.05-3.76,0.02l-20.21-20.05
					l-20.25,20.06C188.61,173.08,187.94,173.36,187.24,173.36z"/>
			</g>
			<g id="Group_470" transform="translate(0 33.387)">
				<g id="Group_469">
					<path id="Path_165" class="st0" d="M329.54,306.33H166.88c-1.47,0-2.66-1.19-2.66-2.65c0,0,0,0,0,0l0.03-109.06
						c0-0.72,0.29-1.4,0.8-1.9l29.07-28.32c1.05-1.02,2.73-1,3.76,0.05c1.02,1.05,1,2.73-0.05,3.76l0,0l-28.27,27.54l-0.03,105.29
						h157.35l-0.03-105.29l-28.27-27.54c-1.05-1.02-1.07-2.71-0.05-3.76c1.02-1.05,2.71-1.07,3.76-0.05l29.07,28.32
						c0.51,0.5,0.8,1.19,0.8,1.9l0.03,109.06C332.2,305.14,331.01,306.33,329.54,306.33C329.54,306.33,329.54,306.33,329.54,306.33
						L329.54,306.33z"/>
				</g>
			</g>
		</g>
	</g>
	<g id="Group_475" transform="translate(38.847 29.179)">
		<g id="Group_473">
			<path id="Path_166" class="st1" d="M224.72,211.87c-0.21,0-0.41-0.08-0.56-0.23l-6.74-6.74l-30.76,0.01
				c-1.15,0-2.09-0.93-2.09-2.08c0-0.37,0.1-0.73,0.28-1.05l22.7-39.32c0.37-0.65,1.06-1.05,1.81-1.04l0,0
				c0.75,0,1.44,0.39,1.81,1.04l22.7,39.32c0.58,1,0.24,2.27-0.76,2.85c-0.32,0.18-0.68,0.28-1.04,0.28h-6.55v6.17
				c0,0.32-0.19,0.61-0.49,0.73C224.92,211.85,224.82,211.87,224.72,211.87z M217.75,203.32c0.21,0,0.41,0.08,0.56,0.23l5.63,5.63
				v-5.05c0-0.44,0.35-0.79,0.79-0.79c0,0,0,0,0,0h7.34c0.28,0,0.51-0.23,0.51-0.51c0-0.09-0.02-0.17-0.07-0.25l-22.7-39.32
				c-0.14-0.24-0.45-0.33-0.7-0.19c-0.08,0.04-0.14,0.11-0.19,0.19l-22.7,39.32c-0.14,0.24-0.06,0.55,0.19,0.69
				c0.08,0.04,0.17,0.07,0.25,0.07L217.75,203.32L217.75,203.32z"/>
		</g>
		<g id="Group_474" transform="translate(14.629 6.474)">
			<path id="Path_167" class="st1" d="M192.24,190.72c0-1.42,1.15-2.57,2.57-2.57c1.42,0,2.57,1.15,2.57,2.57l0,0
				c0,1.42-1.15,2.57-2.57,2.57C193.39,193.29,192.24,192.14,192.24,190.72z M197.05,167.31c0,1.51-0.45,5.38-0.98,11.1l-0.53,5.67
				h-1.47l-0.53-5.67c-0.53-5.71-0.98-9.59-0.98-11.1c0-1.75,0.85-2.49,2.24-2.49S197.05,165.55,197.05,167.31L197.05,167.31z"/>
		</g>
	</g>
</g>
<g id="Master_Layer_2">
</g>
<g id="Layer_3">
</g>
</svg>
