<?xml version="1.0" encoding="utf-8"?>
<!-- Generator: Adobe Illustrator 25.0.0, SVG Export Plug-In . SVG Version: 6.00 Build 0)  -->
<svg version="1.1" xmlns="http://www.w3.org/2000/svg" xmlns:xlink="http://www.w3.org/1999/xlink" x="0px" y="0px"
	 viewBox="0 0 492 492" style="enable-background:new 0 0 492 492;" xml:space="preserve">
<style type="text/css">
	.st0{fill:none;stroke:#FFFFFF;stroke-width:0.8;stroke-miterlimit:10;}
	.st1{fill:#FFFFFF;}
</style>
<g id="Layer_1">
	<g id="Group_542_1_" transform="translate(54.475 0)">
		<path id="Path_219_1_" class="st0" d="M289.16,243.49c0,52.97-42.93,95.91-95.9,95.91c-52.97,0-95.91-42.93-95.92-95.9
			c0-52.97,42.93-95.91,95.9-95.91c0,0,0.01,0,0.01,0C246.22,147.59,289.15,190.53,289.16,243.49z"/>
	</g>
	<g id="Group_546_1_" transform="translate(61.213 7.073)">
		<g id="Group_545_1_" transform="translate(0 0)">
			<path id="Path_222_1_" class="st1" d="M186.52,193c14.81,0,16.55,0.05,22.41,0.32c3.52,0.04,7,0.69,10.3,1.91
				c4.83,1.87,8.65,5.69,10.52,10.52c1.22,3.3,1.87,6.78,1.91,10.3c0.27,5.85,0.32,7.6,0.32,22.41s-0.05,16.56-0.32,22.4
				c-0.04,3.52-0.69,7-1.91,10.3c-1.87,4.83-5.69,8.65-10.52,10.52c-3.3,1.22-6.78,1.87-10.3,1.91c-5.85,0.26-7.6,0.32-22.41,0.32
				c-14.81,0-16.56-0.06-22.4-0.32c-3.52-0.04-7-0.69-10.3-1.91c-4.83-1.87-8.65-5.69-10.52-10.52c-1.22-3.3-1.87-6.78-1.91-10.3
				c-0.27-5.85-0.32-7.6-0.32-22.4s0.05-16.56,0.32-22.41c0.04-3.52,0.69-7,1.91-10.3c1.87-4.83,5.69-8.65,10.52-10.52
				c3.3-1.22,6.78-1.87,10.3-1.91C169.96,193.05,171.72,193,186.52,193 M186.52,183.01c-15.06,0-16.94,0.06-22.86,0.34
				c-4.6,0.09-9.15,0.96-13.46,2.58c-7.44,2.88-13.33,8.77-16.21,16.21c-1.62,4.31-2.49,8.86-2.58,13.46
				c-0.28,5.91-0.34,7.81-0.34,22.86c0,15.05,0.06,16.94,0.34,22.86c0.09,4.6,0.96,9.15,2.58,13.46
				c2.88,7.45,8.77,13.33,16.21,16.21c4.31,1.61,8.86,2.48,13.46,2.58c5.91,0.28,7.81,0.34,22.86,0.34s16.94-0.06,22.86-0.34
				c4.6-0.09,9.15-0.96,13.46-2.58c7.45-2.88,13.33-8.76,16.21-16.21c1.61-4.31,2.49-8.86,2.58-13.46
				c0.27-5.91,0.34-7.81,0.34-22.86c0-15.05-0.07-16.94-0.34-22.86c-0.09-4.6-0.96-9.15-2.58-13.46
				c-2.88-7.45-8.77-13.33-16.21-16.21c-4.31-1.61-8.86-2.48-13.46-2.58C203.46,183.07,201.57,183.01,186.52,183.01"/>
			<path id="Path_223_1_" class="st1" d="M186.53,209.97c-15.73,0-28.47,12.75-28.47,28.47s12.75,28.47,28.47,28.47
				S215,254.16,215,238.44v0C215,222.71,202.25,209.97,186.53,209.97 M186.53,256.92c-10.21,0-18.48-8.27-18.48-18.48
				s8.27-18.48,18.48-18.48c10.21,0,18.48,8.27,18.48,18.48C205.01,248.64,196.73,256.92,186.53,256.92"/>
			<path id="Path_224_1_" class="st1" d="M222.77,208.84c0,3.67-2.98,6.65-6.66,6.65c-3.67,0-6.65-2.98-6.65-6.66
				c0-3.67,2.98-6.65,6.65-6.65C219.79,202.18,222.77,205.16,222.77,208.84C222.77,208.83,222.77,208.83,222.77,208.84"/>
		</g>
	</g>
</g>
<g id="Master_Layer_2">
</g>
<g id="Layer_3">
</g>
</svg>
