<?xml version="1.0" encoding="utf-8"?>
<!-- Generator: Adobe Illustrator 25.0.0, SVG Export Plug-In . SVG Version: 6.00 Build 0)  -->
<svg version="1.1" xmlns="http://www.w3.org/2000/svg" xmlns:xlink="http://www.w3.org/1999/xlink" x="0px" y="0px"
	 viewBox="0 0 492 492" style="enable-background:new 0 0 492 492;" xml:space="preserve">
<style type="text/css">
	.st0{fill:#037C87;}
</style>
<g id="Layer_1">
	<path id="Path_252" class="st0" d="M304.27,220.79v-26.86c0.28-25.93-20.48-47.19-46.41-47.53h-20.34
		c-25.93,0.34-46.68,21.6-46.41,47.53v26.96c-8.87,1.56-15.37,9.22-15.48,18.22v84.6c0.14,10.34,8.61,18.62,18.95,18.54h106.76
		c10.34,0.08,18.81-8.2,18.95-18.54v-84.6C320.19,229.9,313.39,222.12,304.27,220.79z M256.75,284.03v21.12
		c-0.05,3.5-2.91,6.3-6.41,6.27h-1.6c-3.5,0.03-6.36-2.77-6.41-6.27v-20.81c-7.34-2.68-12.23-9.63-12.28-17.44
		c0.35-10.54,9.19-18.79,19.72-18.44c10.04,0.34,18.1,8.4,18.44,18.44c-0.04,7.49-4.54,14.23-11.45,17.13L256.75,284.03z
		 M288.75,220.57H206.6v-26.63c-0.24-17.32,13.58-31.57,30.9-31.85h20.36c17.32,0.29,31.14,14.53,30.9,31.85L288.75,220.57z"/>
</g>
<g id="Master_Layer_2">
</g>
</svg>
