<?xml version="1.0" encoding="utf-8"?>
<!-- Generator: Adobe Illustrator 25.0.0, SVG Export Plug-In . SVG Version: 6.00 Build 0)  -->
<svg version="1.1" xmlns="http://www.w3.org/2000/svg" xmlns:xlink="http://www.w3.org/1999/xlink" x="0px" y="0px"
	 viewBox="0 0 492 492" style="enable-background:new 0 0 492 492;" xml:space="preserve">
<style type="text/css">
	.st0{fill:#037C87;}
</style>
<g id="Layer_1">
	<path id="phone" class="st0" d="M207.67,150.43l8.53-3.61c4.23-1.78,9.1,0.04,11.14,4.14l16.86,34.93
		c2.18,4.43,0.35,9.79-4.08,11.96c-0.17,0.08-0.35,0.16-0.52,0.24l-6.54,2.79c-7.95,3.28-11.73,12.38-8.45,20.33
		c0.13,0.32,0.27,0.63,0.42,0.93l27.7,57.42c4.07,8.21,13.83,11.85,22.28,8.3l6.54-2.79c4.85-2.04,10.44,0.05,12.78,4.76
		l16.86,34.93c1.89,3.85,0.3,8.51-3.55,10.4c-0.15,0.07-0.3,0.14-0.45,0.2l-8.55,3.61c-26.26,11.24-60.92-7.33-92.33-72.45
		l-1.46-3.01C173.46,198.46,181.39,161.67,207.67,150.43z"/>
</g>
<g id="Master_Layer_2">
</g>
</svg>
