<?xml version="1.0" encoding="utf-8"?>
<!-- Generator: Adobe Illustrator 25.0.0, SVG Export Plug-In . SVG Version: 6.00 Build 0)  -->
<svg version="1.1" xmlns="http://www.w3.org/2000/svg" xmlns:xlink="http://www.w3.org/1999/xlink" x="0px" y="0px"
	 viewBox="0 0 492 492" style="enable-background:new 0 0 492 492;" xml:space="preserve">
<style type="text/css">
	.st0{fill:none;stroke:#037C87;stroke-width:3;stroke-miterlimit:10;}
	.st1{fill:#037C87;}
	.st2{fill:none;stroke:#ABBA82;stroke-width:3;stroke-miterlimit:10;}
	.st3{fill:#037C87;stroke:#FFFFFF;stroke-width:0.5;stroke-miterlimit:10;}
</style>
<g id="Layer_1">
	<g id="Group_487" transform="translate(1.5 1.5)">
		<path id="Rectangle_8" class="st0" d="M177.66,147.78h138.1c2.19,0,3.96,1.77,3.96,3.96v181.91c0,2.19-1.77,3.96-3.96,3.96h-138.1
			c-2.19,0-3.96-1.77-3.96-3.96V151.74C173.7,149.55,175.47,147.78,177.66,147.78z"/>
		<g id="Group_483" transform="translate(20.958 55.101)">
			<path id="Path_186" class="st1" d="M275.56,195.97c1.98,0,3.58-1.19,3.58-2.65c0-1.47-1.6-2.65-3.58-2.65h-81.98
				c-1.98,0-3.58,1.19-3.58,2.65c0,1.47,1.6,2.65,3.58,2.65H275.56z"/>
		</g>
		<g id="Group_484" transform="translate(29.227 9.434)">
			<path id="Path_187" class="st2" d="M216.93,155.11c0,0-8.92,8.15-20.49,6.08v29.54c0,0,3.44,11.18,20.49,20.15
				c17.05-8.97,20.49-20.15,20.49-20.15V161.2C225.85,163.27,216.93,155.11,216.93,155.11z"/>
		</g>
		<circle id="Ellipse_1" class="st3" cx="195.27" cy="248.87" r="3.65"/>
		<g id="Group_485" transform="translate(20.958 67.255)">
			<path id="Path_188" class="st1" d="M275.56,205.42c1.98,0,3.58-1.19,3.58-2.65c0-1.47-1.6-2.65-3.58-2.65h-81.98
				c-1.98,0-3.58,1.19-3.58,2.65c0,1.47,1.6,2.65,3.58,2.65H275.56z"/>
		</g>
		<circle id="Ellipse_2" class="st3" cx="195.27" cy="270.48" r="3.65"/>
		<path id="Path_189" class="st1" d="M296.52,294.93c1.98,0,3.58-1.19,3.58-2.65c0-1.47-1.6-2.65-3.58-2.65h-81.98
			c-1.98,0-3.58,1.19-3.58,2.65c0,1.47,1.6,2.65,3.58,2.65H296.52z"/>
		<circle id="Ellipse_3" class="st3" cx="195.27" cy="292.73" r="3.65"/>
		<g id="Group_486" transform="translate(20.958 91.923)">
			<path id="Path_190" class="st1" d="M275.56,224.62c1.98,0,3.58-1.19,3.58-2.65c0-1.47-1.6-2.65-3.58-2.65h-81.98
				c-1.98,0-3.58,1.19-3.58,2.65c0,1.47,1.6,2.65,3.58,2.65H275.56z"/>
		</g>
		<circle id="Ellipse_4" class="st3" cx="195.27" cy="314.34" r="3.65"/>
	</g>
</g>
<g id="Master_Layer_2">
</g>
<g id="Layer_3">
</g>
</svg>
