<?xml version="1.0" encoding="utf-8"?>
<!-- Generator: Adobe Illustrator 25.0.0, SVG Export Plug-In . SVG Version: 6.00 Build 0)  -->
<svg version="1.1" xmlns="http://www.w3.org/2000/svg" xmlns:xlink="http://www.w3.org/1999/xlink" x="0px" y="0px"
	 viewBox="0 0 492 492" style="enable-background:new 0 0 492 492;" xml:space="preserve">
<style type="text/css">
	.st0{fill:none;stroke:#FFFFFF;stroke-width:0.8;stroke-miterlimit:10;}
	.st1{fill:#FFFFFF;}
</style>
<g id="Layer_1">
	<g id="Group_543" transform="translate(109.771 0.382)">
		<path id="Path_220" class="st0" d="M233.64,243.81c0,52.97-42.93,95.91-95.9,95.91c-52.97,0-95.91-42.93-95.92-95.9
			c0-52.97,42.93-95.91,95.9-95.91c0,0,0,0,0.01,0C190.7,147.91,233.64,190.84,233.64,243.81z"/>
	</g>
	<g id="Group_547" transform="translate(116.77 8.68)">
		<path id="Path_225" class="st1" d="M76.85,267.08c29.24,18.73,68.13,10.22,86.86-19.02c7.02-10.96,10.47-23.82,9.87-36.82
			c4.33-3.13,8.06-7,11.02-11.44c-4.03,1.79-8.32,2.96-12.7,3.48c4.62-2.76,8.07-7.11,9.72-12.23c-4.34,2.57-9.09,4.39-14.04,5.37
			c-8.36-8.91-22.36-9.35-31.27-1c-5.76,5.4-8.2,13.47-6.4,21.16c-17.78-0.89-34.34-9.29-45.57-23.11
			c-5.87,10.1-2.87,23.03,6.84,29.52c-3.51-0.11-6.95-1.06-10.02-2.77c-0.13,10.63,7.32,19.85,17.74,21.96
			c-3.25,0.88-6.67,1.01-9.98,0.38c2.89,9.01,11.19,15.18,20.64,15.35C100.31,265.18,88.54,268.48,76.85,267.08z"/>
	</g>
</g>
<g id="Master_Layer_2">
</g>
<g id="Layer_3">
</g>
</svg>
