<?xml version="1.0" encoding="utf-8"?>
<!-- Generator: Adobe Illustrator 25.0.0, SVG Export Plug-In . SVG Version: 6.00 Build 0)  -->
<svg version="1.1" id="Layer_1" xmlns="http://www.w3.org/2000/svg" xmlns:xlink="http://www.w3.org/1999/xlink" x="0px" y="0px"
	 viewBox="0 0 492 492" style="enable-background:new 0 0 492 492;" xml:space="preserve">
<style type="text/css">
	.st0{fill:#FFFFFF;}
</style>
<g id="Layer_1_1_">
	<path id="Path_242" class="st0" d="M246.4,150.8c28.1,0,50.9,22.8,50.9,50.9s-22.8,50.9-50.9,50.9s-50.9-22.8-50.9-50.9
		c0-13.5,5.4-26.5,14.9-36C219.9,156.1,232.9,150.7,246.4,150.8z"/>
	<path id="Path_243" class="st0" d="M336.1,334.8c0.2-12.5-1-25.1-3.8-37.3c-0.5-1.9-1.2-3.7-2-5.5h0.1c-2.8-6.8-7.2-12.7-12.8-17.3
		c-12.8-9.3-27.5-15.9-43-19.3c-0.6-0.2-1.2-0.2-1.8,0h0l-0.3,0.1l-0.2,0.1h-0.1c-0.2,0.1-0.5,0.2-0.7,0.4
		c-15.3,10.9-35.9,10.9-51.2,0c-0.2-0.1-0.4-0.3-0.7-0.4h-0.1l-0.2-0.1l-0.3-0.1h-0.1c-0.6-0.2-1.2-0.2-1.8,0
		c-15.5,3.4-30.1,10-42.9,19.3c-5.7,4.6-10.1,10.6-12.8,17.3h0.1c-0.8,1.8-1.4,3.7-2,5.5c-2.7,12.2-4,24.8-3.8,37.3
		c-0.1,2.3-0.1,4.5-0.2,6.7c-0.1,2,1.5,3.6,3.4,3.7h173.6c2-0.1,3.5-1.7,3.5-3.7C336.2,339.3,336.1,337.1,336.1,334.8z"/>
</g>
<g id="Master_Layer_2">
</g>
<g id="Layer_3">
</g>
</svg>
