<?xml version="1.0" encoding="utf-8"?>
<!-- Generator: Adobe Illustrator 25.0.0, SVG Export Plug-In . SVG Version: 6.00 Build 0)  -->
<svg version="1.1" xmlns="http://www.w3.org/2000/svg" xmlns:xlink="http://www.w3.org/1999/xlink" x="0px" y="0px"
	 viewBox="0 0 492 492" style="enable-background:new 0 0 492 492;" xml:space="preserve">
<style type="text/css">
	.st0{fill:#FFFFFF;}
</style>
<g id="Layer_1">
	<path id="Path_242" class="st0" d="M248.46,146.14c28.14,0,50.95,22.8,50.95,50.94c0,28.14-22.8,50.95-50.94,50.95
		c-28.14,0-50.95-22.8-50.95-50.94c0-13.51,5.37-26.47,14.92-36.03C221.98,151.49,234.95,146.12,248.46,146.14z M279.4,166.15
		c-17.09-17.09-44.79-17.09-61.88-0.01c-17.09,17.09-17.09,44.79-0.01,61.88c17.09,17.09,44.79,17.09,61.88,0.01
		c8.21-8.21,12.82-19.34,12.82-30.95C292.22,185.48,287.61,174.35,279.4,166.15z"/>
	<path id="Path_243" class="st0" d="M338.23,330.16c0.23-12.54-1.03-25.06-3.76-37.31c-0.54-1.89-1.19-3.74-1.96-5.54h0.09
		c-2.75-6.77-7.17-12.73-12.84-17.33c-12.84-9.33-27.46-15.91-42.95-19.33c-0.6-0.16-1.22-0.16-1.82,0h-0.05l-0.27,0.09l-0.19,0.07
		h-0.07c-0.23,0.1-0.46,0.22-0.66,0.37c-15.34,10.91-35.9,10.91-51.24,0c-0.21-0.15-0.43-0.27-0.66-0.37h-0.07l-0.19-0.07
		l-0.27-0.09h-0.05c-0.6-0.16-1.22-0.16-1.82,0c-15.49,3.42-30.12,10-42.95,19.33c-5.67,4.6-10.09,10.56-12.84,17.33h0.09
		c-0.76,1.81-1.42,3.66-1.96,5.54c-2.73,12.24-3.99,24.77-3.76,37.31c-0.05,2.28-0.1,4.5-0.18,6.74c-0.06,1.97,1.48,3.62,3.45,3.7
		h173.6c1.97-0.07,3.51-1.73,3.45-3.7C338.3,334.65,338.23,332.43,338.23,330.16z M310.57,333.42h-145.5c0-1.01,0.05-2.04,0.08-3.1
		c-0.22-11.93,0.96-23.85,3.51-35.51c2.25-8.21,7.34-15.35,14.36-20.17c11.34-7.37,23.75-12.97,36.78-16.58
		c8.4,5.53,18.23,8.47,28.28,8.48l0,0c10.05,0,19.88-2.95,28.28-8.48c13.04,3.61,25.44,9.21,36.78,16.58
		c7.02,4.82,12.1,11.96,14.36,20.17c2.55,11.66,3.73,23.57,3.51,35.51c0,1.04,0.05,2.09,0.08,3.1H310.57z"/>
</g>
<g id="Master_Layer_2">
</g>
<g id="Layer_3">
</g>
</svg>
