<?xml version="1.0" encoding="utf-8"?>
<!-- Generator: Adobe Illustrator 25.0.0, SVG Export Plug-In . SVG Version: 6.00 Build 0)  -->
<svg version="1.1" xmlns="http://www.w3.org/2000/svg" xmlns:xlink="http://www.w3.org/1999/xlink" x="0px" y="0px"
	 viewBox="0 0 492 492" style="enable-background:new 0 0 492 492;" xml:space="preserve">
<style type="text/css">
	.st0{fill:#037C87;}
</style>
<g id="Layer_1">
	<g id="Group_625" transform="translate(-481.525 -501.141)">
		<path id="Path_255" class="st0" d="M817.49,699.45v1.23c0,1.25-0.67,2.4-1.75,3.01l-85.97,49.09c-1.07,0.61-2.37,0.61-3.44,0
			l-85.97-49.07c-1.08-0.62-1.75-1.77-1.75-3.01v-4.71c0-5.08,4.12-9.2,9.2-9.2h157.03c6.99-0.01,12.67,5.66,12.67,12.65
			C817.49,699.44,817.49,699.44,817.49,699.45z"/>
		<path id="Path_256" class="st0" d="M730.69,764.52l86.8-49.55v84.33c0,5.08-4.12,9.2-9.2,9.2H647.8c-5.07,0.01-9.19-4.1-9.2-9.18
			c0-0.01,0-0.02,0-0.02v-84.33l86.8,49.54c1.64,0.95,3.66,0.95,5.3,0V764.52z"/>
	</g>
</g>
<g id="Master_Layer_2">
</g>
</svg>
