<?xml version="1.0" encoding="utf-8"?>
<!-- Generator: Adobe Illustrator 25.0.0, SVG Export Plug-In . SVG Version: 6.00 Build 0)  -->
<svg version="1.1" xmlns="http://www.w3.org/2000/svg" xmlns:xlink="http://www.w3.org/1999/xlink" x="0px" y="0px"
	 viewBox="0 0 492 492" style="enable-background:new 0 0 492 492;" xml:space="preserve">
<style type="text/css">
	.st0{fill:none;stroke:#FFFFFF;stroke-miterlimit:10;}
	.st1{fill:none;}
	.st2{fill:none;stroke:#FFFFFF;stroke-width:2;}
</style>
<g id="Layer_1">
	<g id="Group_622" transform="translate(-99 -129.704)">
		<g id="Group_621" transform="translate(116 148.704)">
			<path id="Path_244" class="st0" d="M177.84,267.8c11.51,0,15.28,7.62,26.67,7.62c11.43,0,15.23-7.62,26.67-7.62
				c11.43,0,15.24,7.62,26.67,7.62c11.39,0,15.16-7.62,26.67-7.62"/>
			<path id="Path_245" class="st0" d="M177.84,248.75c11.51,0,15.28,7.62,26.67,7.62c11.43,0,15.23-7.62,26.67-7.62
				c11.43,0,15.24,7.62,26.67,7.62c11.39,0,15.16-7.62,26.67-7.62"/>
			<path id="Path_246" class="st0" d="M231.18,248.75c6.67,0,10.74,2.57,15.24,4.73v-16.16c0-8.42-6.82-15.24-15.24-15.24
				c-8.42,0-15.24,6.82-15.24,15.24v16.16C220.44,251.32,224.52,248.75,231.18,248.75z"/>
			<path id="Path_247" class="st0" d="M189.49,222.08h7.4v32.99c2.45,0.87,5.02,1.3,7.62,1.3c11.43,0,15.23-7.62,26.67-7.62
				c11.43,0,15.24,7.62,26.67,7.62c2.6,0.01,5.17-0.43,7.62-1.3v-32.99h7.39c2.42-0.2,4.22-2.32,4.02-4.74
				c-0.09-1.08-0.58-2.09-1.37-2.84l-38.21-35.74c-3.44-3.2-8.77-3.2-12.2,0l-38.24,35.75c-1.77,1.66-1.85,4.44-0.18,6.21
				C187.41,221.5,188.41,221.99,189.49,222.08z"/>
		</g>
	</g>
	<g id="Ellipse_33">
		<circle class="st1" cx="248.17" cy="244.24" r="91.11"/>
		<circle class="st2" cx="248.17" cy="244.24" r="88.88"/>
	</g>
</g>
<g id="Master_Layer_2">
</g>
<g id="Layer_3">
</g>
</svg>
