<?xml version="1.0" encoding="utf-8"?>
<!-- Generator: Adobe Illustrator 25.0.0, SVG Export Plug-In . SVG Version: 6.00 Build 0)  -->
<svg version="1.1" xmlns="http://www.w3.org/2000/svg" xmlns:xlink="http://www.w3.org/1999/xlink" x="0px" y="0px"
	 viewBox="0 0 492 492" style="enable-background:new 0 0 492 492;" xml:space="preserve">
<style type="text/css">
	.st0{fill:#037C87;}
</style>
<g id="Layer_1">
	<g id="Group_624" transform="translate(-71.874 -62.42)">
		<path id="Path_248" class="st0" d="M320.07,208.56c28.38,0,51.39,23,51.4,51.38c0,28.38-23,51.39-51.38,51.4
			c-28.38,0-51.39-23-51.4-51.38c0-13.63,5.41-26.7,15.05-36.34C293.36,213.96,306.44,208.54,320.07,208.56z"/>
		<path id="Path_249" class="st0" d="M410.56,394.14c0.23-12.65-1.04-25.28-3.79-37.63c-0.55-1.9-1.21-3.77-1.98-5.59h0.1
			c-2.77-6.82-7.23-12.83-12.94-17.47c-12.95-9.41-27.69-16.06-43.32-19.52c-0.6-0.16-1.23-0.16-1.83,0l0,0l-0.27,0.09l-0.2,0.07
			h-0.07c-0.24,0.1-0.46,0.22-0.67,0.37c-15.47,11.01-36.21,11.01-51.68,0c-0.21-0.15-0.44-0.27-0.67-0.37h-0.07l-0.2-0.07
			l-0.27-0.09l0,0c-0.6-0.15-1.23-0.15-1.83,0c-15.63,3.46-30.38,10.11-43.32,19.52c-5.72,4.64-10.17,10.65-12.94,17.47h0.1
			c-0.77,1.82-1.43,3.69-1.98,5.59c-2.75,12.35-4.02,24.98-3.79,37.63c0,2.31-0.11,4.54-0.18,6.81c-0.04,1.99,1.51,3.65,3.5,3.73
			h175c1.99-0.09,3.54-1.74,3.5-3.73C410.67,398.68,410.62,396.38,410.56,394.14z"/>
	</g>
</g>
<g id="Master_Layer_2">
</g>
</svg>
