<?xml version="1.0" encoding="utf-8"?>
<!-- Generator: Adobe Illustrator 25.0.0, SVG Export Plug-In . SVG Version: 6.00 Build 0)  -->
<svg version="1.1" id="Layer_1" xmlns="http://www.w3.org/2000/svg" xmlns:xlink="http://www.w3.org/1999/xlink" x="0px" y="0px"
	 viewBox="0 0 492 492" style="enable-background:new 0 0 492 492;" xml:space="preserve">
<style type="text/css">
	.st0{fill:none;}
	.st1{fill:none;stroke:#FFFFFF;stroke-width:2;}
	.st2{fill:#FFFFFF;}
</style>
<g id="Master_Layer_2">
</g>
<g id="Layer_3">
</g>
<g id="Ellipse_33">
	<circle class="st0" cx="248.21" cy="242.31" r="95.96"/>
	<circle class="st1" cx="248.21" cy="242.31" r="93.62"/>
</g>
<g id="Group_630" transform="translate(-55.047 -47.453)">
	<path id="Path_242" class="st2" d="M303.49,228.83c17.63-0.01,31.93,14.28,31.94,31.91s-14.28,31.93-31.91,31.94
		s-31.93-14.28-31.94-31.91c0-8.47,3.36-16.59,9.34-22.57C286.89,232.2,295.02,228.83,303.49,228.83z M322.87,241.37
		c-10.71-10.71-28.07-10.71-38.77,0c-10.71,10.71-10.71,28.07,0,38.77c10.71,10.71,28.07,10.71,38.77,0
		c5.14-5.14,8.03-12.12,8.03-19.39C330.91,253.49,328.02,246.51,322.87,241.37z"/>
	<path id="Path_243" class="st2" d="M359.72,344.14c-0.18-7.74-0.4-16.56-2.36-23.37c-0.34-1.18-0.75-2.34-1.23-3.48h0.06
		c-1.72-4.24-4.49-7.97-8.05-10.86c-5.59-4.65-14.01-8.51-26.92-12.11c-0.37-0.1-0.77-0.11-1.14-0.01h-0.04
		c-0.06,0.02-0.11,0.03-0.17,0.05l-0.12,0.04l-0.04,0.02c-0.15,0.06-0.29,0.14-0.42,0.23c-9.61,6.84-22.5,6.84-32.11,0
		c-0.13-0.09-0.27-0.17-0.42-0.23l-0.04-0.02l-0.12-0.04c-0.06-0.02-0.11-0.04-0.17-0.05h-0.04c-0.37-0.09-0.77-0.09-1.14,0.01
		c-12.91,3.6-21.33,7.47-26.92,12.11c-3.55,2.88-6.32,6.62-8.05,10.86h0.06c-0.48,1.13-0.89,2.29-1.23,3.48
		c-1.96,6.81-2.17,15.63-2.36,23.37c-0.04,1.43-0.07,2.81-0.11,4.23c-0.04,1.24,0.94,2.28,2.17,2.31h0.07l0,0h108.66l0,0h0.07
		c1.24-0.04,2.21-1.08,2.17-2.31C359.79,346.96,359.75,345.57,359.72,344.14z M342.4,346.19h-91.16c0.02-0.63,0.03-1.28,0.05-1.94
		c0.18-7.45,0.38-15.93,2.2-22.25c1.41-5.14,4.6-9.62,9-12.64c5-3.66,12.33-6.93,23.05-10.39c5.26,3.46,11.42,5.31,17.72,5.31l0,0
		c6.3,0,12.46-1.85,17.72-5.31c10.71,3.46,18.04,6.73,23.05,10.39c4.4,3.02,7.59,7.5,9,12.64c1.82,6.32,2.02,14.8,2.2,22.25
		c0.02,0.66,0.03,1.31,0.05,1.94H342.4z"/>
</g>
</svg>
